<svg width="331" height="53" viewBox="0 0 331 53" fill="none" xmlns="http://www.w3.org/2000/svg">
<path d="M299.829 24.1472C300.524 24.407 301.137 24.8488 301.604 25.4264C302.133 25.9825 302.613 26.5959 303.178 27.114C304.315 28.1571 305.259 27.9142 305.821 26.4609C305.979 26.0059 306.112 25.5431 306.222 25.0742C306.381 24.4185 306.618 23.784 306.926 23.184C307.095 22.7942 307.353 22.4496 307.68 22.1779C308.006 21.9061 308.392 21.7149 308.806 21.6195C309.219 21.5241 309.65 21.5273 310.062 21.6288C310.475 21.7303 310.857 21.9272 311.18 22.2038C311.738 22.6612 312.252 23.1696 312.715 23.7223C313.398 24.4336 313.95 25.5269 315.129 25.2839C316.335 25.0346 316.361 23.8082 316.633 22.8633C316.823 22.1165 317.092 21.3921 317.437 20.7025C317.605 20.3397 317.853 20.019 318.161 19.7638C318.469 19.5086 318.83 19.3252 319.218 19.227C319.606 19.1288 320.011 19.1183 320.403 19.1961C320.796 19.274 321.166 19.4383 321.487 19.6772C322.142 20.1679 322.732 20.7415 323.24 21.3836C323.72 22.1132 324.432 22.6592 325.261 22.9329C325.676 23.0142 325.75 23.351 325.826 23.6798C325.934 24.1508 325.802 24.4343 325.253 24.3813C324.476 24.3232 323.746 23.9912 323.192 23.4446C322.713 22.9714 322.278 22.4541 321.81 21.9694C321.493 21.6082 321.146 21.2745 320.773 20.9717C320.626 20.8259 320.444 20.7188 320.245 20.6602C320.046 20.6016 319.835 20.5931 319.632 20.6357C319.429 20.6782 319.24 20.7704 319.081 20.904C318.922 21.0375 318.799 21.2084 318.722 21.4012C318.438 21.9058 318.227 22.4476 318.094 23.0109C317.952 23.6205 317.773 24.2207 317.557 24.8082C317.422 25.2775 317.166 25.7031 316.815 26.0423C316.464 26.3815 316.03 26.6223 315.556 26.7405C315.082 26.8587 314.586 26.8501 314.116 26.7157C313.647 26.5812 313.221 26.3256 312.882 25.9745C312.297 25.4823 311.821 24.8619 311.285 24.3111C310.687 23.6974 310.157 22.8531 309.151 23.0784C308.145 23.3036 307.993 24.2724 307.727 25.0884C307.518 25.7292 307.396 26.3996 307.158 27.0285C306.259 29.3977 304.1 29.9363 302.234 28.2358C301.559 27.6231 301.003 26.8827 300.353 26.2395C299.08 24.9777 298.048 25.2011 297.444 26.8781C297.184 27.6015 297.033 28.3624 296.803 29.0982C296.599 29.8982 296.137 30.6087 295.488 31.1198C295.23 31.3095 294.892 31.63 294.604 31.3786C294.272 31.094 294.088 30.4504 294.385 30.2049C295.638 29.175 295.587 27.6278 296.097 26.3099C296.833 24.4092 298.124 23.6216 299.829 24.1472Z" fill="#00FF19"/>
<path d="M292.104 43.5903C292.173 43.4927 292.277 43.3331 292.393 43.182C293.158 42.1974 293.951 41.2337 294.681 40.2221C295.056 39.7015 295.379 39.6845 295.85 40.0593C296.859 40.8714 297.874 41.6746 298.91 42.4525C299.341 42.7752 299.435 43.0449 299.064 43.4983C298.245 44.5017 297.462 45.533 296.687 46.57C296.344 47.0269 296.042 47.1787 295.53 46.7525C294.534 45.9243 293.488 45.1581 292.471 44.3566C292.25 44.1873 291.967 44.0268 292.104 43.5903Z" fill="#00FF19"/>
<path d="M313.853 10.2673C313.419 10.147 313.013 9.94246 312.659 9.6653C312.304 9.38815 312.007 9.04382 311.785 8.65197C311.563 8.26013 311.421 7.82844 311.366 7.38157C311.311 6.93469 311.345 6.48136 311.465 6.04748C311.585 5.6136 311.79 5.20765 312.067 4.85283C312.344 4.498 312.689 4.20124 313.08 3.97949C313.472 3.75774 313.904 3.61534 314.351 3.56042C314.798 3.5055 315.251 3.53913 315.685 3.6594C316.131 3.76891 316.549 3.9695 316.914 4.24855C317.279 4.52761 317.582 4.87909 317.804 5.28091C318.026 5.68273 318.163 6.12619 318.206 6.58343C318.249 7.04067 318.196 7.5018 318.052 7.93782C317.931 8.36777 317.727 8.76953 317.45 9.11985C317.173 9.47018 316.829 9.7621 316.439 9.97874C316.048 10.1954 315.619 10.3324 315.175 10.382C314.731 10.4315 314.282 10.3925 313.853 10.2673V10.2673ZM312.844 6.48864C312.783 6.74481 312.773 7.01064 312.815 7.27068C312.857 7.53072 312.95 7.7798 313.09 8.00339C313.229 8.22699 313.411 8.42064 313.626 8.57312C313.841 8.72559 314.084 8.83383 314.341 8.89153C314.836 9.00547 315.356 8.92243 315.791 8.65994C316.226 8.39746 316.542 7.97612 316.672 7.48498C316.749 7.23276 316.773 6.96742 316.744 6.7054C316.714 6.44337 316.631 6.19023 316.499 5.96164C316.368 5.73305 316.191 5.53388 315.979 5.37644C315.768 5.219 315.526 5.10664 315.27 5.04633C315.015 4.97639 314.75 4.95849 314.489 4.99367C314.228 5.02886 313.976 5.11641 313.75 5.2511C313.523 5.38578 313.326 5.56482 313.171 5.77747C313.015 5.99013 312.904 6.23202 312.844 6.48864V6.48864Z" fill="#00FF19"/>
<path d="M235.865 18.8001C236.644 18.7901 237.424 18.7781 238.203 18.7641C239.103 18.7521 239.95 18.6851 240.003 20.0271C240.06 21.4001 239.319 21.6691 238.203 21.6871C236.741 21.7091 235.28 21.7501 233.822 21.8191C233.267 21.8451 232.472 21.6271 232.235 22.1871C231.909 22.9581 232.796 23.2961 233.235 23.7401C234.328 24.8491 235.448 25.9401 236.628 26.9531C237.586 27.7771 237.219 28.3681 236.549 29.1231C235.849 29.9101 235.302 29.7951 234.624 29.1351C233.291 27.8478 231.939 26.5838 230.569 25.3431C229.8 24.6511 229.31 24.9521 229.31 25.9141C229.31 27.6671 229.385 29.4141 229.452 31.1691C229.49 32.1691 229.26 32.8691 228.063 32.9321C226.866 32.9951 226.551 32.3961 226.528 31.3491C226.49 29.5981 226.396 27.8491 226.303 26.0961C226.285 25.7321 226.303 25.2961 225.866 25.1201C225.398 24.9281 225.145 25.3311 224.896 25.5881C223.61 26.9161 222.335 28.2581 221.09 29.6291C220.39 30.4061 219.819 30.2551 219.153 29.5741C218.536 28.9441 218.163 28.4021 218.924 27.6121C220.276 26.2121 221.594 24.7761 222.908 23.3361C223.094 23.1361 223.325 22.8201 223.289 22.5971C223.212 22.1271 222.757 22.1291 222.37 22.1351C220.522 22.1711 218.67 22.1981 216.819 22.2561C215.919 22.2821 215.353 22.0661 215.307 20.9931C215.261 19.9201 215.562 19.3451 216.732 19.3371C218.582 19.3271 220.432 19.2501 222.283 19.1871C222.655 19.1751 223.133 19.1951 223.183 18.6991C223.201 18.4781 222.95 18.1891 222.756 17.9991C221.426 16.7111 220.1 15.4181 218.731 14.1751C217.976 13.4911 217.707 12.9441 218.518 12.0371C219.437 11.0091 220.055 11.2741 220.872 12.1121C222.097 13.3631 223.405 14.5351 224.7 15.7181C224.959 15.9551 225.226 16.3961 225.676 16.1181C226.055 15.8851 225.955 15.4461 225.947 15.0731C225.904 13.3181 225.892 11.5651 225.801 9.8131C225.744 8.7481 226.088 8.18309 227.222 8.08009C228.463 7.96909 228.704 8.65709 228.73 9.65709C228.773 11.5078 228.832 13.3574 228.908 15.2061C228.894 15.4846 228.982 15.7588 229.155 15.9771C229.555 16.3071 229.872 15.9331 230.131 15.6611C231.41 14.3231 232.694 12.9911 233.931 11.6181C234.631 10.8471 235.215 10.5711 236.091 11.4361C236.891 12.2171 236.968 12.7841 236.148 13.6001C234.765 14.9711 233.46 16.4201 232.158 17.8681C231.585 18.5041 231.8 18.9111 232.65 18.9131C233.721 18.9191 234.792 18.8871 235.865 18.8691C235.865 18.8511 235.865 18.8271 235.865 18.8001Z" fill="#FFCC00"/>
<path d="M72.3052 32.073C79.761 32.073 85.8052 26.0288 85.8052 18.573C85.8052 11.1172 79.761 5.073 72.3052 5.073C64.8493 5.073 58.8052 11.1172 58.8052 18.573C58.8052 26.0288 64.8493 32.073 72.3052 32.073Z" stroke="#FFEE00" stroke-width="2"/>
<path d="M142.305 32.073C145.343 32.073 147.805 29.6106 147.805 26.573C147.805 23.5354 145.343 21.073 142.305 21.073C139.268 21.073 136.805 23.5354 136.805 26.573C136.805 29.6106 139.268 32.073 142.305 32.073Z" stroke="#FFEE00" stroke-width="2"/>
<path d="M20.5624 15.7317C21.3418 15.7217 22.1211 15.7097 22.9004 15.6957C23.8004 15.6837 24.6474 15.6167 24.7004 16.9587C24.7574 18.3317 24.0164 18.6007 22.9004 18.6187C21.4384 18.6407 19.9774 18.6817 18.5194 18.7507C17.9644 18.7767 17.1694 18.5587 16.9324 19.1187C16.6064 19.8897 17.4934 20.2277 17.9324 20.6717C19.0254 21.7807 20.1454 22.8717 21.3254 23.8847C22.2834 24.7087 21.9164 25.2997 21.2464 26.0547C20.5464 26.8417 19.9994 26.7267 19.3214 26.0667C17.9881 24.7794 16.6364 23.5154 15.2664 22.2747C14.4974 21.5827 14.0074 21.8837 14.0074 22.8457C14.0074 24.5987 14.0824 26.3457 14.1494 28.1007C14.1874 29.1007 13.9574 29.8007 12.7604 29.8637C11.5634 29.9267 11.2484 29.3277 11.2254 28.2807C11.1874 26.5297 11.0934 24.7807 11.0004 23.0277C10.9824 22.6637 11.0004 22.2277 10.5634 22.0517C10.0954 21.8597 9.84244 22.2627 9.59344 22.5197C8.30744 23.8477 7.03244 25.1897 5.78744 26.5607C5.08744 27.3377 4.51644 27.1867 3.85044 26.5057C3.23344 25.8757 2.86044 25.3337 3.62144 24.5437C4.97344 23.1437 6.29143 21.7077 7.60543 20.2677C7.79143 20.0677 8.02243 19.7517 7.98643 19.5287C7.90943 19.0587 7.45444 19.0607 7.06744 19.0667C5.21944 19.1027 3.36744 19.1297 1.51644 19.1877C0.616441 19.2137 0.0504318 18.9977 0.00443179 17.9247C-0.0415682 16.8517 0.259435 16.2767 1.42943 16.2687C3.27943 16.2587 5.12943 16.1817 6.98043 16.1187C7.35243 16.1067 7.83044 16.1267 7.88044 15.6307C7.89844 15.4097 7.64744 15.1207 7.45344 14.9307C6.12344 13.6427 4.79743 12.3497 3.42843 11.1067C2.67343 10.4227 2.40443 9.87573 3.21543 8.96873C4.13443 7.94073 4.75243 8.20572 5.56943 9.04372C6.79443 10.2947 8.10244 11.4667 9.39744 12.6497C9.65644 12.8867 9.92344 13.3277 10.3734 13.0497C10.7524 12.8167 10.6524 12.3777 10.6444 12.0047C10.6014 10.2497 10.5894 8.49674 10.4984 6.74474C10.4414 5.67974 10.7854 5.11473 11.9194 5.01173C13.1604 4.90073 13.4014 5.58873 13.4274 6.58873C13.4701 8.4394 13.5294 10.289 13.6054 12.1377C13.5909 12.4162 13.6788 12.6905 13.8524 12.9087C14.2524 13.2387 14.5694 12.8647 14.8284 12.5927C16.1074 11.2547 17.3914 9.92273 18.6284 8.54973C19.3284 7.77873 19.9124 7.50272 20.7884 8.36772C21.5884 9.14872 21.6654 9.71572 20.8454 10.5317C19.4624 11.9027 18.1574 13.3517 16.8554 14.7997C16.2824 15.4357 16.4974 15.8427 17.3474 15.8447C18.4184 15.8507 19.4894 15.8187 20.5624 15.8007C20.5624 15.7827 20.5624 15.7587 20.5624 15.7317Z" fill="#00E5FF"/>
</svg>
