<svg width="438" height="502" viewBox="0 0 438 502" fill="none" xmlns="http://www.w3.org/2000/svg">
<path d="M77.5 9C79.9853 9 82 6.98528 82 4.5C82 2.01472 79.9853 0 77.5 0C75.0147 0 73 2.01472 73 4.5C73 6.98528 75.0147 9 77.5 9Z" fill="#EFF0FE"/>
<path d="M106.5 9C108.985 9 111 6.98528 111 4.5C111 2.01472 108.985 0 106.5 0C104.015 0 102 2.01472 102 4.5C102 6.98528 104.015 9 106.5 9Z" fill="#EFF0FE"/>
<path d="M135.5 9C137.985 9 140 6.98528 140 4.5C140 2.01472 137.985 0 135.5 0C133.015 0 131 2.01472 131 4.5C131 6.98528 133.015 9 135.5 9Z" fill="#EFF0FE"/>
<path d="M164.5 9C166.985 9 169 6.98528 169 4.5C169 2.01472 166.985 0 164.5 0C162.015 0 160 2.01472 160 4.5C160 6.98528 162.015 9 164.5 9Z" fill="#EFF0FE"/>
<path d="M193.5 9C195.985 9 198 6.98528 198 4.5C198 2.01472 195.985 0 193.5 0C191.015 0 189 2.01472 189 4.5C189 6.98528 191.015 9 193.5 9Z" fill="#EFF0FE"/>
<path d="M222.5 9C224.985 9 227 6.98528 227 4.5C227 2.01472 224.985 0 222.5 0C220.015 0 218 2.01472 218 4.5C218 6.98528 220.015 9 222.5 9Z" fill="#EFF0FE"/>
<path d="M251.5 9C253.985 9 256 6.98528 256 4.5C256 2.01472 253.985 0 251.5 0C249.015 0 247 2.01472 247 4.5C247 6.98528 249.015 9 251.5 9Z" fill="#EFF0FE"/>
<path d="M77.5 38C79.9853 38 82 35.9853 82 33.5C82 31.0147 79.9853 29 77.5 29C75.0147 29 73 31.0147 73 33.5C73 35.9853 75.0147 38 77.5 38Z" fill="#EFF0FE"/>
<path d="M106.5 38C108.985 38 111 35.9853 111 33.5C111 31.0147 108.985 29 106.5 29C104.015 29 102 31.0147 102 33.5C102 35.9853 104.015 38 106.5 38Z" fill="#EFF0FE"/>
<path d="M135.5 38C137.985 38 140 35.9853 140 33.5C140 31.0147 137.985 29 135.5 29C133.015 29 131 31.0147 131 33.5C131 35.9853 133.015 38 135.5 38Z" fill="#EFF0FE"/>
<path d="M164.5 38C166.985 38 169 35.9853 169 33.5C169 31.0147 166.985 29 164.5 29C162.015 29 160 31.0147 160 33.5C160 35.9853 162.015 38 164.5 38Z" fill="#EFF0FE"/>
<path d="M193.5 38C195.985 38 198 35.9853 198 33.5C198 31.0147 195.985 29 193.5 29C191.015 29 189 31.0147 189 33.5C189 35.9853 191.015 38 193.5 38Z" fill="#EFF0FE"/>
<path d="M222.5 38C224.985 38 227 35.9853 227 33.5C227 31.0147 224.985 29 222.5 29C220.015 29 218 31.0147 218 33.5C218 35.9853 220.015 38 222.5 38Z" fill="#EFF0FE"/>
<path d="M251.5 38C253.985 38 256 35.9853 256 33.5C256 31.0147 253.985 29 251.5 29C249.015 29 247 31.0147 247 33.5C247 35.9853 249.015 38 251.5 38Z" fill="#EFF0FE"/>
<path d="M77.5 67C79.9853 67 82 64.9853 82 62.5C82 60.0147 79.9853 58 77.5 58C75.0147 58 73 60.0147 73 62.5C73 64.9853 75.0147 67 77.5 67Z" fill="#EFF0FE"/>
<path d="M106.5 67C108.985 67 111 64.9853 111 62.5C111 60.0147 108.985 58 106.5 58C104.015 58 102 60.0147 102 62.5C102 64.9853 104.015 67 106.5 67Z" fill="#EFF0FE"/>
<path d="M135.5 67C137.985 67 140 64.9853 140 62.5C140 60.0147 137.985 58 135.5 58C133.015 58 131 60.0147 131 62.5C131 64.9853 133.015 67 135.5 67Z" fill="#EFF0FE"/>
<path d="M164.5 67C166.985 67 169 64.9853 169 62.5C169 60.0147 166.985 58 164.5 58C162.015 58 160 60.0147 160 62.5C160 64.9853 162.015 67 164.5 67Z" fill="#EFF0FE"/>
<path d="M193.5 67C195.985 67 198 64.9853 198 62.5C198 60.0147 195.985 58 193.5 58C191.015 58 189 60.0147 189 62.5C189 64.9853 191.015 67 193.5 67Z" fill="#EFF0FE"/>
<path d="M222.5 67C224.985 67 227 64.9853 227 62.5C227 60.0147 224.985 58 222.5 58C220.015 58 218 60.0147 218 62.5C218 64.9853 220.015 67 222.5 67Z" fill="#EFF0FE"/>
<path d="M251.5 67C253.985 67 256 64.9853 256 62.5C256 60.0147 253.985 58 251.5 58C249.015 58 247 60.0147 247 62.5C247 64.9853 249.015 67 251.5 67Z" fill="#EFF0FE"/>
<path d="M77.5 96C79.9853 96 82 93.9853 82 91.5C82 89.0147 79.9853 87 77.5 87C75.0147 87 73 89.0147 73 91.5C73 93.9853 75.0147 96 77.5 96Z" fill="#EFF0FE"/>
<path d="M106.5 96C108.985 96 111 93.9853 111 91.5C111 89.0147 108.985 87 106.5 87C104.015 87 102 89.0147 102 91.5C102 93.9853 104.015 96 106.5 96Z" fill="#EFF0FE"/>
<path d="M135.5 96C137.985 96 140 93.9853 140 91.5C140 89.0147 137.985 87 135.5 87C133.015 87 131 89.0147 131 91.5C131 93.9853 133.015 96 135.5 96Z" fill="#EFF0FE"/>
<path d="M164.5 96C166.985 96 169 93.9853 169 91.5C169 89.0147 166.985 87 164.5 87C162.015 87 160 89.0147 160 91.5C160 93.9853 162.015 96 164.5 96Z" fill="#EFF0FE"/>
<path d="M193.5 96C195.985 96 198 93.9853 198 91.5C198 89.0147 195.985 87 193.5 87C191.015 87 189 89.0147 189 91.5C189 93.9853 191.015 96 193.5 96Z" fill="#EFF0FE"/>
<path d="M222.5 96C224.985 96 227 93.9853 227 91.5C227 89.0147 224.985 87 222.5 87C220.015 87 218 89.0147 218 91.5C218 93.9853 220.015 96 222.5 96Z" fill="#EFF0FE"/>
<path d="M251.5 96C253.985 96 256 93.9853 256 91.5C256 89.0147 253.985 87 251.5 87C249.015 87 247 89.0147 247 91.5C247 93.9853 249.015 96 251.5 96Z" fill="#EFF0FE"/>
<path d="M77.5 125C79.9853 125 82 122.985 82 120.5C82 118.015 79.9853 116 77.5 116C75.0147 116 73 118.015 73 120.5C73 122.985 75.0147 125 77.5 125Z" fill="#EFF0FE"/>
<path d="M106.5 125C108.985 125 111 122.985 111 120.5C111 118.015 108.985 116 106.5 116C104.015 116 102 118.015 102 120.5C102 122.985 104.015 125 106.5 125Z" fill="#EFF0FE"/>
<path d="M135.5 125C137.985 125 140 122.985 140 120.5C140 118.015 137.985 116 135.5 116C133.015 116 131 118.015 131 120.5C131 122.985 133.015 125 135.5 125Z" fill="#EFF0FE"/>
<path d="M164.5 125C166.985 125 169 122.985 169 120.5C169 118.015 166.985 116 164.5 116C162.015 116 160 118.015 160 120.5C160 122.985 162.015 125 164.5 125Z" fill="#EFF0FE"/>
<path d="M193.5 125C195.985 125 198 122.985 198 120.5C198 118.015 195.985 116 193.5 116C191.015 116 189 118.015 189 120.5C189 122.985 191.015 125 193.5 125Z" fill="#EFF0FE"/>
<path d="M222.5 125C224.985 125 227 122.985 227 120.5C227 118.015 224.985 116 222.5 116C220.015 116 218 118.015 218 120.5C218 122.985 220.015 125 222.5 125Z" fill="#EFF0FE"/>
<path d="M251.5 125C253.985 125 256 122.985 256 120.5C256 118.015 253.985 116 251.5 116C249.015 116 247 118.015 247 120.5C247 122.985 249.015 125 251.5 125Z" fill="#EFF0FE"/>
<path d="M77.5 154C79.9853 154 82 151.985 82 149.5C82 147.015 79.9853 145 77.5 145C75.0147 145 73 147.015 73 149.5C73 151.985 75.0147 154 77.5 154Z" fill="#EFF0FE"/>
<path d="M106.5 154C108.985 154 111 151.985 111 149.5C111 147.015 108.985 145 106.5 145C104.015 145 102 147.015 102 149.5C102 151.985 104.015 154 106.5 154Z" fill="#EFF0FE"/>
<path d="M135.5 154C137.985 154 140 151.985 140 149.5C140 147.015 137.985 145 135.5 145C133.015 145 131 147.015 131 149.5C131 151.985 133.015 154 135.5 154Z" fill="#EFF0FE"/>
<path d="M164.5 154C166.985 154 169 151.985 169 149.5C169 147.015 166.985 145 164.5 145C162.015 145 160 147.015 160 149.5C160 151.985 162.015 154 164.5 154Z" fill="#EFF0FE"/>
<path d="M193.5 154C195.985 154 198 151.985 198 149.5C198 147.015 195.985 145 193.5 145C191.015 145 189 147.015 189 149.5C189 151.985 191.015 154 193.5 154Z" fill="#EFF0FE"/>
<path d="M222.5 154C224.985 154 227 151.985 227 149.5C227 147.015 224.985 145 222.5 145C220.015 145 218 147.015 218 149.5C218 151.985 220.015 154 222.5 154Z" fill="#EFF0FE"/>
<path d="M251.5 154C253.985 154 256 151.985 256 149.5C256 147.015 253.985 145 251.5 145C249.015 145 247 147.015 247 149.5C247 151.985 249.015 154 251.5 154Z" fill="#EFF0FE"/>
<path d="M77.5 183C79.9853 183 82 180.985 82 178.5C82 176.015 79.9853 174 77.5 174C75.0147 174 73 176.015 73 178.5C73 180.985 75.0147 183 77.5 183Z" fill="#EFF0FE"/>
<path d="M106.5 183C108.985 183 111 180.985 111 178.5C111 176.015 108.985 174 106.5 174C104.015 174 102 176.015 102 178.5C102 180.985 104.015 183 106.5 183Z" fill="#EFF0FE"/>
<path d="M135.5 183C137.985 183 140 180.985 140 178.5C140 176.015 137.985 174 135.5 174C133.015 174 131 176.015 131 178.5C131 180.985 133.015 183 135.5 183Z" fill="#EFF0FE"/>
<path d="M164.5 183C166.985 183 169 180.985 169 178.5C169 176.015 166.985 174 164.5 174C162.015 174 160 176.015 160 178.5C160 180.985 162.015 183 164.5 183Z" fill="#EFF0FE"/>
<path d="M193.5 183C195.985 183 198 180.985 198 178.5C198 176.015 195.985 174 193.5 174C191.015 174 189 176.015 189 178.5C189 180.985 191.015 183 193.5 183Z" fill="#EFF0FE"/>
<path d="M222.5 183C224.985 183 227 180.985 227 178.5C227 176.015 224.985 174 222.5 174C220.015 174 218 176.015 218 178.5C218 180.985 220.015 183 222.5 183Z" fill="#EFF0FE"/>
<path d="M251.5 183C253.985 183 256 180.985 256 178.5C256 176.015 253.985 174 251.5 174C249.015 174 247 176.015 247 178.5C247 180.985 249.015 183 251.5 183Z" fill="#EFF0FE"/>
<path d="M77.5 212C79.9853 212 82 209.985 82 207.5C82 205.015 79.9853 203 77.5 203C75.0147 203 73 205.015 73 207.5C73 209.985 75.0147 212 77.5 212Z" fill="#EFF0FE"/>
<path d="M106.5 212C108.985 212 111 209.985 111 207.5C111 205.015 108.985 203 106.5 203C104.015 203 102 205.015 102 207.5C102 209.985 104.015 212 106.5 212Z" fill="#EFF0FE"/>
<path d="M135.5 212C137.985 212 140 209.985 140 207.5C140 205.015 137.985 203 135.5 203C133.015 203 131 205.015 131 207.5C131 209.985 133.015 212 135.5 212Z" fill="#EFF0FE"/>
<path d="M164.5 212C166.985 212 169 209.985 169 207.5C169 205.015 166.985 203 164.5 203C162.015 203 160 205.015 160 207.5C160 209.985 162.015 212 164.5 212Z" fill="#EFF0FE"/>
<path d="M193.5 212C195.985 212 198 209.985 198 207.5C198 205.015 195.985 203 193.5 203C191.015 203 189 205.015 189 207.5C189 209.985 191.015 212 193.5 212Z" fill="#EFF0FE"/>
<path d="M222.5 212C224.985 212 227 209.985 227 207.5C227 205.015 224.985 203 222.5 203C220.015 203 218 205.015 218 207.5C218 209.985 220.015 212 222.5 212Z" fill="#EFF0FE"/>
<path d="M251.5 212C253.985 212 256 209.985 256 207.5C256 205.015 253.985 203 251.5 203C249.015 203 247 205.015 247 207.5C247 209.985 249.015 212 251.5 212Z" fill="#EFF0FE"/>
<path d="M77.5 241C79.9853 241 82 238.985 82 236.5C82 234.015 79.9853 232 77.5 232C75.0147 232 73 234.015 73 236.5C73 238.985 75.0147 241 77.5 241Z" fill="#EFF0FE"/>
<path d="M106.5 241C108.985 241 111 238.985 111 236.5C111 234.015 108.985 232 106.5 232C104.015 232 102 234.015 102 236.5C102 238.985 104.015 241 106.5 241Z" fill="#EFF0FE"/>
<path d="M135.5 241C137.985 241 140 238.985 140 236.5C140 234.015 137.985 232 135.5 232C133.015 232 131 234.015 131 236.5C131 238.985 133.015 241 135.5 241Z" fill="#EFF0FE"/>
<path d="M164.5 241C166.985 241 169 238.985 169 236.5C169 234.015 166.985 232 164.5 232C162.015 232 160 234.015 160 236.5C160 238.985 162.015 241 164.5 241Z" fill="#EFF0FE"/>
<path d="M193.5 241C195.985 241 198 238.985 198 236.5C198 234.015 195.985 232 193.5 232C191.015 232 189 234.015 189 236.5C189 238.985 191.015 241 193.5 241Z" fill="#EFF0FE"/>
<path d="M222.5 241C224.985 241 227 238.985 227 236.5C227 234.015 224.985 232 222.5 232C220.015 232 218 234.015 218 236.5C218 238.985 220.015 241 222.5 241Z" fill="#EFF0FE"/>
<path d="M251.5 241C253.985 241 256 238.985 256 236.5C256 234.015 253.985 232 251.5 232C249.015 232 247 234.015 247 236.5C247 238.985 249.015 241 251.5 241Z" fill="#EFF0FE"/>
<path d="M77.5 270C79.9853 270 82 267.985 82 265.5C82 263.015 79.9853 261 77.5 261C75.0147 261 73 263.015 73 265.5C73 267.985 75.0147 270 77.5 270Z" fill="#EFF0FE"/>
<path d="M106.5 270C108.985 270 111 267.985 111 265.5C111 263.015 108.985 261 106.5 261C104.015 261 102 263.015 102 265.5C102 267.985 104.015 270 106.5 270Z" fill="#EFF0FE"/>
<path d="M135.5 270C137.985 270 140 267.985 140 265.5C140 263.015 137.985 261 135.5 261C133.015 261 131 263.015 131 265.5C131 267.985 133.015 270 135.5 270Z" fill="#EFF0FE"/>
<path d="M164.5 270C166.985 270 169 267.985 169 265.5C169 263.015 166.985 261 164.5 261C162.015 261 160 263.015 160 265.5C160 267.985 162.015 270 164.5 270Z" fill="#EFF0FE"/>
<path d="M193.5 270C195.985 270 198 267.985 198 265.5C198 263.015 195.985 261 193.5 261C191.015 261 189 263.015 189 265.5C189 267.985 191.015 270 193.5 270Z" fill="#EFF0FE"/>
<path d="M222.5 270C224.985 270 227 267.985 227 265.5C227 263.015 224.985 261 222.5 261C220.015 261 218 263.015 218 265.5C218 267.985 220.015 270 222.5 270Z" fill="#EFF0FE"/>
<path d="M251.5 270C253.985 270 256 267.985 256 265.5C256 263.015 253.985 261 251.5 261C249.015 261 247 263.015 247 265.5C247 267.985 249.015 270 251.5 270Z" fill="#EFF0FE"/>
<path d="M77.5 299C79.9853 299 82 296.985 82 294.5C82 292.015 79.9853 290 77.5 290C75.0147 290 73 292.015 73 294.5C73 296.985 75.0147 299 77.5 299Z" fill="#EFF0FE"/>
<path d="M106.5 299C108.985 299 111 296.985 111 294.5C111 292.015 108.985 290 106.5 290C104.015 290 102 292.015 102 294.5C102 296.985 104.015 299 106.5 299Z" fill="#EFF0FE"/>
<path d="M135.5 299C137.985 299 140 296.985 140 294.5C140 292.015 137.985 290 135.5 290C133.015 290 131 292.015 131 294.5C131 296.985 133.015 299 135.5 299Z" fill="#EFF0FE"/>
<path d="M164.5 299C166.985 299 169 296.985 169 294.5C169 292.015 166.985 290 164.5 290C162.015 290 160 292.015 160 294.5C160 296.985 162.015 299 164.5 299Z" fill="#EFF0FE"/>
<path d="M193.5 299C195.985 299 198 296.985 198 294.5C198 292.015 195.985 290 193.5 290C191.015 290 189 292.015 189 294.5C189 296.985 191.015 299 193.5 299Z" fill="#EFF0FE"/>
<path d="M222.5 299C224.985 299 227 296.985 227 294.5C227 292.015 224.985 290 222.5 290C220.015 290 218 292.015 218 294.5C218 296.985 220.015 299 222.5 299Z" fill="#EFF0FE"/>
<path d="M251.5 299C253.985 299 256 296.985 256 294.5C256 292.015 253.985 290 251.5 290C249.015 290 247 292.015 247 294.5C247 296.985 249.015 299 251.5 299Z" fill="#EFF0FE"/>
<path d="M77.5 328C79.9853 328 82 325.985 82 323.5C82 321.015 79.9853 319 77.5 319C75.0147 319 73 321.015 73 323.5C73 325.985 75.0147 328 77.5 328Z" fill="#EFF0FE"/>
<path d="M106.5 328C108.985 328 111 325.985 111 323.5C111 321.015 108.985 319 106.5 319C104.015 319 102 321.015 102 323.5C102 325.985 104.015 328 106.5 328Z" fill="#EFF0FE"/>
<path d="M135.5 328C137.985 328 140 325.985 140 323.5C140 321.015 137.985 319 135.5 319C133.015 319 131 321.015 131 323.5C131 325.985 133.015 328 135.5 328Z" fill="#EFF0FE"/>
<path d="M164.5 328C166.985 328 169 325.985 169 323.5C169 321.015 166.985 319 164.5 319C162.015 319 160 321.015 160 323.5C160 325.985 162.015 328 164.5 328Z" fill="#EFF0FE"/>
<path d="M193.5 328C195.985 328 198 325.985 198 323.5C198 321.015 195.985 319 193.5 319C191.015 319 189 321.015 189 323.5C189 325.985 191.015 328 193.5 328Z" fill="#EFF0FE"/>
<path d="M222.5 328C224.985 328 227 325.985 227 323.5C227 321.015 224.985 319 222.5 319C220.015 319 218 321.015 218 323.5C218 325.985 220.015 328 222.5 328Z" fill="#EFF0FE"/>
<path d="M251.5 328C253.985 328 256 325.985 256 323.5C256 321.015 253.985 319 251.5 319C249.015 319 247 321.015 247 323.5C247 325.985 249.015 328 251.5 328Z" fill="#EFF0FE"/>
<path d="M77.5 357C79.9853 357 82 354.985 82 352.5C82 350.015 79.9853 348 77.5 348C75.0147 348 73 350.015 73 352.5C73 354.985 75.0147 357 77.5 357Z" fill="#EFF0FE"/>
<path d="M106.5 357C108.985 357 111 354.985 111 352.5C111 350.015 108.985 348 106.5 348C104.015 348 102 350.015 102 352.5C102 354.985 104.015 357 106.5 357Z" fill="#EFF0FE"/>
<path d="M135.5 357C137.985 357 140 354.985 140 352.5C140 350.015 137.985 348 135.5 348C133.015 348 131 350.015 131 352.5C131 354.985 133.015 357 135.5 357Z" fill="#EFF0FE"/>
<path d="M164.5 357C166.985 357 169 354.985 169 352.5C169 350.015 166.985 348 164.5 348C162.015 348 160 350.015 160 352.5C160 354.985 162.015 357 164.5 357Z" fill="#EFF0FE"/>
<path d="M193.5 357C195.985 357 198 354.985 198 352.5C198 350.015 195.985 348 193.5 348C191.015 348 189 350.015 189 352.5C189 354.985 191.015 357 193.5 357Z" fill="#EFF0FE"/>
<path d="M222.5 357C224.985 357 227 354.985 227 352.5C227 350.015 224.985 348 222.5 348C220.015 348 218 350.015 218 352.5C218 354.985 220.015 357 222.5 357Z" fill="#EFF0FE"/>
<path d="M251.5 357C253.985 357 256 354.985 256 352.5C256 350.015 253.985 348 251.5 348C249.015 348 247 350.015 247 352.5C247 354.985 249.015 357 251.5 357Z" fill="#EFF0FE"/>
<path d="M77.5 386C79.9853 386 82 383.985 82 381.5C82 379.015 79.9853 377 77.5 377C75.0147 377 73 379.015 73 381.5C73 383.985 75.0147 386 77.5 386Z" fill="#EFF0FE"/>
<path d="M106.5 386C108.985 386 111 383.985 111 381.5C111 379.015 108.985 377 106.5 377C104.015 377 102 379.015 102 381.5C102 383.985 104.015 386 106.5 386Z" fill="#EFF0FE"/>
<path d="M135.5 386C137.985 386 140 383.985 140 381.5C140 379.015 137.985 377 135.5 377C133.015 377 131 379.015 131 381.5C131 383.985 133.015 386 135.5 386Z" fill="#EFF0FE"/>
<path d="M164.5 386C166.985 386 169 383.985 169 381.5C169 379.015 166.985 377 164.5 377C162.015 377 160 379.015 160 381.5C160 383.985 162.015 386 164.5 386Z" fill="#EFF0FE"/>
<path d="M193.5 386C195.985 386 198 383.985 198 381.5C198 379.015 195.985 377 193.5 377C191.015 377 189 379.015 189 381.5C189 383.985 191.015 386 193.5 386Z" fill="#EFF0FE"/>
<path d="M222.5 386C224.985 386 227 383.985 227 381.5C227 379.015 224.985 377 222.5 377C220.015 377 218 379.015 218 381.5C218 383.985 220.015 386 222.5 386Z" fill="#EFF0FE"/>
<path d="M251.5 386C253.985 386 256 383.985 256 381.5C256 379.015 253.985 377 251.5 377C249.015 377 247 379.015 247 381.5C247 383.985 249.015 386 251.5 386Z" fill="#EFF0FE"/>
<path d="M77.5 415C79.9853 415 82 412.985 82 410.5C82 408.015 79.9853 406 77.5 406C75.0147 406 73 408.015 73 410.5C73 412.985 75.0147 415 77.5 415Z" fill="#EFF0FE"/>
<path d="M106.5 415C108.985 415 111 412.985 111 410.5C111 408.015 108.985 406 106.5 406C104.015 406 102 408.015 102 410.5C102 412.985 104.015 415 106.5 415Z" fill="#EFF0FE"/>
<path d="M135.5 415C137.985 415 140 412.985 140 410.5C140 408.015 137.985 406 135.5 406C133.015 406 131 408.015 131 410.5C131 412.985 133.015 415 135.5 415Z" fill="#EFF0FE"/>
<path d="M164.5 415C166.985 415 169 412.985 169 410.5C169 408.015 166.985 406 164.5 406C162.015 406 160 408.015 160 410.5C160 412.985 162.015 415 164.5 415Z" fill="#EFF0FE"/>
<path d="M193.5 415C195.985 415 198 412.985 198 410.5C198 408.015 195.985 406 193.5 406C191.015 406 189 408.015 189 410.5C189 412.985 191.015 415 193.5 415Z" fill="#EFF0FE"/>
<path d="M222.5 415C224.985 415 227 412.985 227 410.5C227 408.015 224.985 406 222.5 406C220.015 406 218 408.015 218 410.5C218 412.985 220.015 415 222.5 415Z" fill="#EFF0FE"/>
<path d="M251.5 415C253.985 415 256 412.985 256 410.5C256 408.015 253.985 406 251.5 406C249.015 406 247 408.015 247 410.5C247 412.985 249.015 415 251.5 415Z" fill="#EFF0FE"/>
<path d="M77.5 444C79.9853 444 82 441.985 82 439.5C82 437.015 79.9853 435 77.5 435C75.0147 435 73 437.015 73 439.5C73 441.985 75.0147 444 77.5 444Z" fill="#EFF0FE"/>
<path d="M106.5 444C108.985 444 111 441.985 111 439.5C111 437.015 108.985 435 106.5 435C104.015 435 102 437.015 102 439.5C102 441.985 104.015 444 106.5 444Z" fill="#EFF0FE"/>
<path d="M135.5 444C137.985 444 140 441.985 140 439.5C140 437.015 137.985 435 135.5 435C133.015 435 131 437.015 131 439.5C131 441.985 133.015 444 135.5 444Z" fill="#EFF0FE"/>
<path d="M164.5 444C166.985 444 169 441.985 169 439.5C169 437.015 166.985 435 164.5 435C162.015 435 160 437.015 160 439.5C160 441.985 162.015 444 164.5 444Z" fill="#EFF0FE"/>
<path d="M193.5 444C195.985 444 198 441.985 198 439.5C198 437.015 195.985 435 193.5 435C191.015 435 189 437.015 189 439.5C189 441.985 191.015 444 193.5 444Z" fill="#EFF0FE"/>
<path d="M222.5 444C224.985 444 227 441.985 227 439.5C227 437.015 224.985 435 222.5 435C220.015 435 218 437.015 218 439.5C218 441.985 220.015 444 222.5 444Z" fill="#EFF0FE"/>
<path d="M251.5 444C253.985 444 256 441.985 256 439.5C256 437.015 253.985 435 251.5 435C249.015 435 247 437.015 247 439.5C247 441.985 249.015 444 251.5 444Z" fill="#EFF0FE"/>
<path d="M77.5 473C79.9853 473 82 470.985 82 468.5C82 466.015 79.9853 464 77.5 464C75.0147 464 73 466.015 73 468.5C73 470.985 75.0147 473 77.5 473Z" fill="#EFF0FE"/>
<path d="M106.5 473C108.985 473 111 470.985 111 468.5C111 466.015 108.985 464 106.5 464C104.015 464 102 466.015 102 468.5C102 470.985 104.015 473 106.5 473Z" fill="#EFF0FE"/>
<path d="M135.5 473C137.985 473 140 470.985 140 468.5C140 466.015 137.985 464 135.5 464C133.015 464 131 466.015 131 468.5C131 470.985 133.015 473 135.5 473Z" fill="#EFF0FE"/>
<path d="M164.5 473C166.985 473 169 470.985 169 468.5C169 466.015 166.985 464 164.5 464C162.015 464 160 466.015 160 468.5C160 470.985 162.015 473 164.5 473Z" fill="#EFF0FE"/>
<path d="M193.5 473C195.985 473 198 470.985 198 468.5C198 466.015 195.985 464 193.5 464C191.015 464 189 466.015 189 468.5C189 470.985 191.015 473 193.5 473Z" fill="#EFF0FE"/>
<path d="M222.5 473C224.985 473 227 470.985 227 468.5C227 466.015 224.985 464 222.5 464C220.015 464 218 466.015 218 468.5C218 470.985 220.015 473 222.5 473Z" fill="#EFF0FE"/>
<path d="M251.5 473C253.985 473 256 470.985 256 468.5C256 466.015 253.985 464 251.5 464C249.015 464 247 466.015 247 468.5C247 470.985 249.015 473 251.5 473Z" fill="#EFF0FE"/>
<path d="M77.5 502C79.9853 502 82 499.985 82 497.5C82 495.015 79.9853 493 77.5 493C75.0147 493 73 495.015 73 497.5C73 499.985 75.0147 502 77.5 502Z" fill="#EFF0FE"/>
<path d="M106.5 502C108.985 502 111 499.985 111 497.5C111 495.015 108.985 493 106.5 493C104.015 493 102 495.015 102 497.5C102 499.985 104.015 502 106.5 502Z" fill="#EFF0FE"/>
<path d="M135.5 502C137.985 502 140 499.985 140 497.5C140 495.015 137.985 493 135.5 493C133.015 493 131 495.015 131 497.5C131 499.985 133.015 502 135.5 502Z" fill="#EFF0FE"/>
<path d="M164.5 502C166.985 502 169 499.985 169 497.5C169 495.015 166.985 493 164.5 493C162.015 493 160 495.015 160 497.5C160 499.985 162.015 502 164.5 502Z" fill="#EFF0FE"/>
<path d="M193.5 502C195.985 502 198 499.985 198 497.5C198 495.015 195.985 493 193.5 493C191.015 493 189 495.015 189 497.5C189 499.985 191.015 502 193.5 502Z" fill="#EFF0FE"/>
<path d="M222.5 502C224.985 502 227 499.985 227 497.5C227 495.015 224.985 493 222.5 493C220.015 493 218 495.015 218 497.5C218 499.985 220.015 502 222.5 502Z" fill="#EFF0FE"/>
<path d="M251.5 502C253.985 502 256 499.985 256 497.5C256 495.015 253.985 493 251.5 493C249.015 493 247 495.015 247 497.5C247 499.985 249.015 502 251.5 502Z" fill="#EFF0FE"/>
<path d="M101 175H27C12.0883 175 0 187.088 0 202V369C0 383.912 12.0883 396 27 396H101C115.912 396 128 383.912 128 369V202C128 187.088 115.912 175 101 175Z" fill="#FF014E"/>
<path opacity="0.2" d="M83 351H45C36.1634 351 29 358.163 29 367C29 375.837 36.1634 383 45 383H83C91.8366 383 99 375.837 99 367C99 358.163 91.8366 351 83 351Z" fill="white"/>
<path opacity="0.2" d="M120.79 209.591H50.7898C48.5807 209.591 46.7898 211.382 46.7898 213.591C46.7898 215.8 48.5807 217.591 50.7898 217.591H120.79C122.999 217.591 124.79 215.8 124.79 213.591C124.79 211.382 122.999 209.591 120.79 209.591Z" fill="white"/>
<g opacity="0.5">
<path opacity="0.5" d="M38.1269 217.238V218.149C38.1197 218.674 37.9079 219.175 37.5366 219.547C37.1654 219.918 36.6639 220.13 36.1389 220.137H20.2319C19.7069 220.13 19.2054 219.918 18.8342 219.547C18.4629 219.175 18.2511 218.674 18.2439 218.149V217.238C18.2439 214.838 21.0609 213.344 23.7119 212.184L23.9609 212.06C24.0599 212.015 24.1682 211.996 24.2765 212.003C24.3848 212.01 24.4896 212.044 24.5819 212.101C25.6371 212.803 26.8763 213.178 28.1439 213.178C29.4094 213.164 30.6448 212.791 31.7059 212.101C31.7982 212.044 31.903 212.01 32.0113 212.003C32.1196 211.996 32.2279 212.015 32.3269 212.06L32.5759 212.184C35.3099 213.344 38.1269 214.794 38.1269 217.238ZM28.1859 200.254C29.5643 200.326 30.8576 200.943 31.7818 201.968C32.706 202.993 33.1854 204.343 33.1149 205.722C33.1854 207.1 32.706 208.451 31.7818 209.476C30.8576 210.501 29.5643 211.118 28.1859 211.19C26.8073 211.118 25.5138 210.501 24.5894 209.476C23.665 208.451 23.1854 207.101 23.2559 205.722C23.1854 204.343 23.665 202.993 24.5894 201.968C25.5138 200.942 26.8073 200.326 28.1859 200.254V200.254Z" fill="white"/>
</g>
<path opacity="0.2" d="M120.79 249.591H50.7898C48.5807 249.591 46.7898 251.382 46.7898 253.591C46.7898 255.8 48.5807 257.591 50.7898 257.591H120.79C122.999 257.591 124.79 255.8 124.79 253.591C124.79 251.382 122.999 249.591 120.79 249.591Z" fill="white"/>
<g opacity="0.5">
<path opacity="0.5" d="M38.1269 257.238V258.149C38.1197 258.674 37.9079 259.175 37.5366 259.547C37.1654 259.918 36.6639 260.13 36.1389 260.137H20.2319C19.7069 260.13 19.2054 259.918 18.8342 259.547C18.4629 259.175 18.2511 258.674 18.2439 258.149V257.238C18.2439 254.838 21.0609 253.344 23.7119 252.184L23.9609 252.06C24.0599 252.015 24.1682 251.996 24.2765 252.003C24.3848 252.01 24.4896 252.044 24.5819 252.101C25.6371 252.803 26.8763 253.178 28.1439 253.178C29.4094 253.164 30.6448 252.791 31.7059 252.101C31.7982 252.044 31.903 252.01 32.0113 252.003C32.1196 251.996 32.2279 252.015 32.3269 252.06L32.5759 252.184C35.3099 253.344 38.1269 254.794 38.1269 257.238ZM28.1859 240.254C29.5643 240.326 30.8576 240.943 31.7818 241.968C32.706 242.993 33.1854 244.343 33.1149 245.722C33.1854 247.1 32.706 248.451 31.7818 249.476C30.8576 250.501 29.5643 251.118 28.1859 251.19C26.8073 251.118 25.5138 250.501 24.5894 249.476C23.665 248.451 23.1854 247.101 23.2559 245.722C23.1854 244.343 23.665 242.993 24.5894 241.968C25.5138 240.942 26.8073 240.326 28.1859 240.254V240.254Z" fill="white"/>
</g>
<path opacity="0.2" d="M120.79 289.591H50.7898C48.5807 289.591 46.7898 291.382 46.7898 293.591C46.7898 295.8 48.5807 297.591 50.7898 297.591H120.79C122.999 297.591 124.79 295.8 124.79 293.591C124.79 291.382 122.999 289.591 120.79 289.591Z" fill="white"/>
<g opacity="0.5">
<path opacity="0.5" d="M38.1269 297.238V298.149C38.1197 298.674 37.9079 299.175 37.5366 299.547C37.1654 299.918 36.6639 300.13 36.1389 300.137H20.2319C19.7069 300.13 19.2054 299.918 18.8342 299.547C18.4629 299.175 18.2511 298.674 18.2439 298.149V297.238C18.2439 294.838 21.0609 293.344 23.7119 292.184L23.9609 292.06C24.0599 292.015 24.1682 291.996 24.2765 292.003C24.3848 292.01 24.4896 292.044 24.5819 292.101C25.6371 292.803 26.8763 293.178 28.1439 293.178C29.4094 293.164 30.6448 292.791 31.7059 292.101C31.7982 292.044 31.903 292.01 32.0113 292.003C32.1196 291.996 32.2279 292.015 32.3269 292.06L32.5759 292.184C35.3099 293.344 38.1269 294.794 38.1269 297.238ZM28.1859 280.254C29.5643 280.326 30.8576 280.943 31.7818 281.968C32.706 282.993 33.1854 284.343 33.1149 285.722C33.1854 287.1 32.706 288.451 31.7818 289.476C30.8576 290.501 29.5643 291.118 28.1859 291.19C26.8073 291.118 25.5138 290.501 24.5894 289.476C23.665 288.451 23.1854 287.101 23.2559 285.722C23.1854 284.343 23.665 282.993 24.5894 281.968C25.5138 280.942 26.8073 280.326 28.1859 280.254V280.254Z" fill="white"/>
</g>
<path opacity="0.2" d="M120.79 329.591H50.7898C48.5807 329.591 46.7898 331.382 46.7898 333.591C46.7898 335.8 48.5807 337.591 50.7898 337.591H120.79C122.999 337.591 124.79 335.8 124.79 333.591C124.79 331.382 122.999 329.591 120.79 329.591Z" fill="white"/>
<g opacity="0.5">
<path opacity="0.5" d="M38.1269 337.238V338.149C38.1197 338.674 37.9079 339.175 37.5366 339.547C37.1654 339.918 36.6639 340.13 36.1389 340.137H20.2319C19.7069 340.13 19.2054 339.918 18.8342 339.547C18.4629 339.175 18.2511 338.674 18.2439 338.149V337.238C18.2439 334.838 21.0609 333.344 23.7119 332.184L23.9609 332.06C24.0599 332.015 24.1682 331.996 24.2765 332.003C24.3848 332.01 24.4896 332.044 24.5819 332.101C25.6371 332.803 26.8763 333.178 28.1439 333.178C29.4094 333.164 30.6448 332.791 31.7059 332.101C31.7982 332.044 31.903 332.01 32.0113 332.003C32.1196 331.996 32.2279 332.015 32.3269 332.06L32.5759 332.184C35.3099 333.344 38.1269 334.794 38.1269 337.238ZM28.1859 320.254C29.5643 320.326 30.8576 320.943 31.7818 321.968C32.706 322.993 33.1854 324.343 33.1149 325.722C33.1854 327.1 32.706 328.451 31.7818 329.476C30.8576 330.501 29.5643 331.118 28.1859 331.19C26.8073 331.118 25.5138 330.501 24.5894 329.476C23.665 328.451 23.1854 327.101 23.2559 325.722C23.1854 324.343 23.665 322.993 24.5894 321.968C25.5138 320.942 26.8073 320.326 28.1859 320.254V320.254Z" fill="white"/>
</g>
<path d="M314 122H194C179.088 122 167 134.088 167 149V395C167 409.912 179.088 422 194 422H314C328.912 422 341 409.912 341 395V149C341 134.088 328.912 122 314 122Z" fill="#474DFF"/>
<path opacity="0.2" d="M280 361H228C215.85 361 206 370.85 206 383C206 395.15 215.85 405 228 405H280C292.15 405 302 395.15 302 383C302 370.85 292.15 361 280 361Z" fill="white"/>
<path opacity="0.2" d="M294.349 165.671H224.349C222.14 165.671 220.349 167.462 220.349 169.671C220.349 171.88 222.14 173.671 224.349 173.671H294.349C296.558 173.671 298.349 171.88 298.349 169.671C298.349 167.462 296.558 165.671 294.349 165.671Z" fill="white"/>
<g opacity="0.5">
<path opacity="0.5" d="M211.686 173.318V174.229C211.679 174.754 211.467 175.255 211.096 175.627C210.724 175.998 210.223 176.21 209.698 176.217H193.791C193.266 176.21 192.765 175.998 192.393 175.627C192.022 175.255 191.81 174.754 191.803 174.229V173.318C191.803 170.918 194.62 169.424 197.271 168.264L197.52 168.14C197.619 168.096 197.727 168.076 197.836 168.083C197.944 168.09 198.049 168.124 198.141 168.181C199.196 168.883 200.435 169.258 201.703 169.258C202.968 169.244 204.204 168.871 205.265 168.181C205.357 168.124 205.462 168.09 205.57 168.083C205.679 168.076 205.787 168.096 205.886 168.14L206.135 168.264C208.869 169.424 211.686 170.874 211.686 173.318ZM201.745 156.334C203.123 156.406 204.417 157.023 205.341 158.048C206.265 159.073 206.745 160.423 206.674 161.802C206.745 163.18 206.265 164.531 205.341 165.556C204.417 166.581 203.123 167.198 201.745 167.27C200.366 167.198 199.073 166.581 198.148 165.556C197.224 164.531 196.744 163.181 196.815 161.802C196.744 160.423 197.224 159.073 198.148 158.048C199.073 157.023 200.366 156.406 201.745 156.334V156.334Z" fill="white"/>
</g>
<path opacity="0.2" d="M294.349 205.671H224.349C222.14 205.671 220.349 207.462 220.349 209.671C220.349 211.88 222.14 213.671 224.349 213.671H294.349C296.558 213.671 298.349 211.88 298.349 209.671C298.349 207.462 296.558 205.671 294.349 205.671Z" fill="white"/>
<g opacity="0.5">
<path opacity="0.5" d="M211.686 213.318V214.229C211.679 214.754 211.467 215.255 211.096 215.627C210.724 215.998 210.223 216.21 209.698 216.217H193.791C193.266 216.21 192.765 215.998 192.393 215.627C192.022 215.255 191.81 214.754 191.803 214.229V213.318C191.803 210.918 194.62 209.424 197.271 208.264L197.52 208.14C197.619 208.096 197.727 208.076 197.836 208.083C197.944 208.09 198.049 208.124 198.141 208.181C199.196 208.883 200.435 209.258 201.703 209.258C202.968 209.244 204.204 208.871 205.265 208.181C205.357 208.124 205.462 208.09 205.57 208.083C205.679 208.076 205.787 208.096 205.886 208.14L206.135 208.264C208.869 209.424 211.686 210.874 211.686 213.318ZM201.745 196.334C203.123 196.406 204.417 197.023 205.341 198.048C206.265 199.073 206.745 200.423 206.674 201.802C206.745 203.18 206.265 204.531 205.341 205.556C204.417 206.581 203.123 207.198 201.745 207.27C200.366 207.198 199.073 206.581 198.148 205.556C197.224 204.531 196.744 203.181 196.815 201.802C196.744 200.423 197.224 199.073 198.148 198.048C199.073 197.023 200.366 196.406 201.745 196.334V196.334Z" fill="white"/>
</g>
<path opacity="0.2" d="M294.349 245.671H224.349C222.14 245.671 220.349 247.462 220.349 249.671C220.349 251.88 222.14 253.671 224.349 253.671H294.349C296.558 253.671 298.349 251.88 298.349 249.671C298.349 247.462 296.558 245.671 294.349 245.671Z" fill="white"/>
<g opacity="0.5">
<path opacity="0.5" d="M211.686 253.318V254.229C211.679 254.754 211.467 255.255 211.096 255.627C210.724 255.998 210.223 256.21 209.698 256.217H193.791C193.266 256.21 192.765 255.998 192.393 255.627C192.022 255.255 191.81 254.754 191.803 254.229V253.318C191.803 250.918 194.62 249.424 197.271 248.264L197.52 248.14C197.619 248.096 197.727 248.076 197.836 248.083C197.944 248.09 198.049 248.124 198.141 248.181C199.196 248.883 200.435 249.258 201.703 249.258C202.968 249.244 204.204 248.871 205.265 248.181C205.357 248.124 205.462 248.09 205.57 248.083C205.679 248.076 205.787 248.096 205.886 248.14L206.135 248.264C208.869 249.424 211.686 250.874 211.686 253.318ZM201.745 236.334C203.123 236.406 204.417 237.023 205.341 238.048C206.265 239.073 206.745 240.423 206.674 241.802C206.745 243.18 206.265 244.531 205.341 245.556C204.417 246.581 203.123 247.198 201.745 247.27C200.366 247.198 199.073 246.581 198.148 245.556C197.224 244.531 196.744 243.181 196.815 241.802C196.744 240.423 197.224 239.073 198.148 238.048C199.073 237.023 200.366 236.406 201.745 236.334V236.334Z" fill="white"/>
</g>
<path opacity="0.2" d="M294.349 285.671H224.349C222.14 285.671 220.349 287.462 220.349 289.671C220.349 291.88 222.14 293.671 224.349 293.671H294.349C296.558 293.671 298.349 291.88 298.349 289.671C298.349 287.462 296.558 285.671 294.349 285.671Z" fill="white"/>
<g opacity="0.5">
<path opacity="0.5" d="M211.686 293.318V294.229C211.679 294.754 211.467 295.255 211.096 295.627C210.724 295.998 210.223 296.21 209.698 296.217H193.791C193.266 296.21 192.765 295.998 192.393 295.627C192.022 295.255 191.81 294.754 191.803 294.229V293.318C191.803 290.918 194.62 289.424 197.271 288.264L197.52 288.14C197.619 288.096 197.727 288.076 197.836 288.083C197.944 288.09 198.049 288.124 198.141 288.181C199.196 288.883 200.435 289.258 201.703 289.258C202.968 289.244 204.204 288.871 205.265 288.181C205.357 288.124 205.462 288.09 205.57 288.083C205.679 288.076 205.787 288.096 205.886 288.14L206.135 288.264C208.869 289.424 211.686 290.874 211.686 293.318ZM201.745 276.334C203.123 276.406 204.417 277.023 205.341 278.048C206.265 279.073 206.745 280.423 206.674 281.802C206.745 283.18 206.265 284.531 205.341 285.556C204.417 286.581 203.123 287.198 201.745 287.27C200.366 287.198 199.073 286.581 198.148 285.556C197.224 284.531 196.744 283.181 196.815 281.802C196.744 280.423 197.224 279.073 198.148 278.048C199.073 277.023 200.366 276.406 201.745 276.334V276.334Z" fill="white"/>
</g>
<path opacity="0.2" d="M294.349 325.671H224.349C222.14 325.671 220.349 327.462 220.349 329.671C220.349 331.88 222.14 333.671 224.349 333.671H294.349C296.558 333.671 298.349 331.88 298.349 329.671C298.349 327.462 296.558 325.671 294.349 325.671Z" fill="white"/>
<g opacity="0.5">
<path opacity="0.5" d="M211.686 333.318V334.229C211.679 334.754 211.467 335.255 211.096 335.627C210.724 335.998 210.223 336.21 209.698 336.217H193.791C193.266 336.21 192.765 335.998 192.393 335.627C192.022 335.255 191.81 334.754 191.803 334.229V333.318C191.803 330.918 194.62 329.424 197.271 328.264L197.52 328.14C197.619 328.096 197.727 328.076 197.836 328.083C197.944 328.09 198.049 328.124 198.141 328.181C199.196 328.883 200.435 329.258 201.703 329.258C202.968 329.244 204.204 328.871 205.265 328.181C205.357 328.124 205.462 328.09 205.57 328.083C205.679 328.076 205.787 328.096 205.886 328.14L206.135 328.264C208.869 329.424 211.686 330.874 211.686 333.318ZM201.745 316.334C203.123 316.406 204.417 317.023 205.341 318.048C206.265 319.073 206.745 320.423 206.674 321.802C206.745 323.18 206.265 324.531 205.341 325.556C204.417 326.581 203.123 327.198 201.745 327.27C200.366 327.198 199.073 326.581 198.148 325.556C197.224 324.531 196.744 323.181 196.815 321.802C196.744 320.423 197.224 319.073 198.148 318.048C199.073 317.023 200.366 316.406 201.745 316.334V316.334Z" fill="white"/>
</g>
<g filter="url(#filter0_d)">
<path d="M378 225H194C188.477 225 184 229.477 184 235V263C184 268.523 188.477 273 194 273H378C383.523 273 388 268.523 388 263V235C388 229.477 383.523 225 378 225Z" fill="white"/>
</g>
<path d="M217.792 255.984V256.895C217.785 257.42 217.573 257.921 217.202 258.293C216.83 258.664 216.329 258.876 215.804 258.883H199.897C199.372 258.876 198.87 258.664 198.499 258.293C198.128 257.921 197.916 257.42 197.909 256.895V255.984C197.909 253.584 200.726 252.09 203.377 250.93L203.626 250.806C203.725 250.762 203.833 250.742 203.942 250.749C204.05 250.756 204.155 250.79 204.247 250.847C205.302 251.549 206.541 251.924 207.809 251.924C209.074 251.91 210.31 251.537 211.371 250.847C211.463 250.79 211.568 250.756 211.676 250.749C211.785 250.742 211.893 250.762 211.992 250.806L212.241 250.93C214.975 252.09 217.792 253.54 217.792 255.984ZM207.851 239C209.229 239.072 210.523 239.689 211.447 240.714C212.371 241.739 212.85 243.09 212.78 244.468C212.85 245.846 212.371 247.197 211.447 248.222C210.523 249.247 209.229 249.864 207.851 249.936C206.472 249.864 205.179 249.247 204.254 248.222C203.33 247.197 202.85 245.847 202.921 244.468C202.85 243.089 203.33 241.739 204.254 240.714C205.179 239.689 206.472 239.072 207.851 239V239Z" fill="#FFC432"/>
<path d="M338.553 245H234.553C232.344 245 230.553 246.791 230.553 249C230.553 251.209 232.344 253 234.553 253H338.553C340.762 253 342.553 251.209 342.553 249C342.553 246.791 340.762 245 338.553 245Z" fill="#FFC432"/>
<path d="M355.033 247.019C355.078 246.859 355.171 246.716 355.299 246.609C355.427 246.502 355.584 246.436 355.75 246.419L359.75 246.119L361.246 242.478C361.298 242.332 361.396 242.206 361.525 242.12C361.654 242.034 361.808 241.992 361.963 242C362.132 241.999 362.297 242.05 362.436 242.146C362.575 242.243 362.681 242.379 362.74 242.538L364.234 246.182L368.234 246.482C368.399 246.465 368.565 246.512 368.697 246.611C368.83 246.711 368.921 246.857 368.951 247.02C369.006 247.177 369.012 247.346 368.969 247.507C368.927 247.667 368.837 247.811 368.712 247.92L365.667 250.484L366.623 254.308C366.667 254.471 366.662 254.643 366.609 254.803C366.555 254.963 366.456 255.104 366.323 255.208C366.191 255.32 366.027 255.386 365.855 255.397C365.683 255.408 365.511 255.363 365.367 255.268L361.963 253.172L358.558 255.264C358.412 255.356 358.241 255.4 358.07 255.388C357.898 255.377 357.734 255.311 357.602 255.2C357.458 255.106 357.35 254.965 357.296 254.802C357.241 254.639 357.244 254.462 357.302 254.3L358.258 250.476L355.212 247.915C355.096 247.801 355.016 247.654 354.984 247.495C354.953 247.335 354.969 247.169 355.033 247.019V247.019Z" fill="#FFC432"/>
<defs>
<filter id="filter0_d" x="134" y="195" width="304" height="148" filterUnits="userSpaceOnUse" color-interpolation-filters="sRGB">
<feFlood flood-opacity="0" result="BackgroundImageFix"/>
<feColorMatrix in="SourceAlpha" type="matrix" values="0 0 0 0 0 0 0 0 0 0 0 0 0 0 0 0 0 0 127 0"/>
<feOffset dy="20"/>
<feGaussianBlur stdDeviation="25"/>
<feColorMatrix type="matrix" values="0 0 0 0 0 0 0 0 0 0 0 0 0 0 0 0 0 0 0.161 0"/>
<feBlend mode="normal" in2="BackgroundImageFix" result="effect1_dropShadow"/>
<feBlend mode="normal" in="SourceGraphic" in2="effect1_dropShadow" result="shape"/>
</filter>
</defs>
</svg>
