<svg width="144" height="52" viewBox="0 0 144 52" fill="none" xmlns="http://www.w3.org/2000/svg">
<path d="M59 23.5C59 12.7304 50.2696 4 39.5 4C28.7304 4 20 12.7304 20 23.5C20 34.2696 28.7304 43 39.5 43C50.2696 43 59 34.2696 59 23.5Z" fill="#FFC432"/>
<path d="M39 23.5C39 12.7304 30.2696 4 19.5 4C8.73045 4 0 12.7304 0 23.5C0 34.2696 8.73045 43 19.5 43C30.2696 43 39 34.2696 39 23.5Z" fill="#FF014E"/>
<path d="M67.37 11.096H85.42V16.568H73.298V22.04H84.508V27.512H73.298V38H67.37V11.096ZM112.215 9.272H117.915V38H112.215V9.272Z" fill="#3740FF"/>
<path d="M88.2614 28.766C88.2614 27.2967 88.5274 25.9667 89.0594 24.776C89.5914 23.5853 90.3134 22.572 91.2254 21.736C92.1627 20.8747 93.2521 20.216 94.4934 19.76C95.7601 19.304 97.1027 19.076 98.5214 19.076C99.9401 19.076 101.27 19.304 102.511 19.76C103.778 20.216 104.867 20.8747 105.779 21.736C106.717 22.572 107.451 23.5853 107.983 24.776C108.515 25.9667 108.781 27.2967 108.781 28.766C108.781 30.2353 108.515 31.5653 107.983 32.756C107.451 33.9467 106.717 34.9727 105.779 35.834C104.867 36.67 103.778 37.316 102.511 37.772C101.27 38.228 99.9401 38.456 98.5214 38.456C97.1027 38.456 95.7601 38.228 94.4934 37.772C93.2521 37.316 92.1627 36.67 91.2254 35.834C90.3134 34.9727 89.5914 33.9467 89.0594 32.756C88.5274 31.5653 88.2614 30.2353 88.2614 28.766ZM93.9614 28.766C93.9614 30.1593 94.3541 31.2867 95.1394 32.148C95.9501 33.0093 97.0774 33.44 98.5214 33.44C99.9654 33.44 101.08 33.0093 101.865 32.148C102.676 31.2867 103.081 30.1593 103.081 28.766C103.081 27.3727 102.676 26.2453 101.865 25.384C101.08 24.5227 99.9654 24.092 98.5214 24.092C97.0774 24.092 95.9501 24.5227 95.1394 25.384C94.3541 26.2453 93.9614 27.3727 93.9614 28.766Z" fill="#FFC432"/>
<path d="M121.326 28.766C121.326 27.2967 121.592 25.9667 122.124 24.776C122.656 23.5853 123.378 22.572 124.29 21.736C125.227 20.8747 126.317 20.216 127.558 19.76C128.825 19.304 130.167 19.076 131.586 19.076C133.005 19.076 134.335 19.304 135.576 19.76C136.843 20.216 137.932 20.8747 138.844 21.736C139.781 22.572 140.516 23.5853 141.048 24.776C141.58 25.9667 141.846 27.2967 141.846 28.766C141.846 30.2353 141.58 31.5653 141.048 32.756C140.516 33.9467 139.781 34.9727 138.844 35.834C137.932 36.67 136.843 37.316 135.576 37.772C134.335 38.228 133.005 38.456 131.586 38.456C130.167 38.456 128.825 38.228 127.558 37.772C126.317 37.316 125.227 36.67 124.29 35.834C123.378 34.9727 122.656 33.9467 122.124 32.756C121.592 31.5653 121.326 30.2353 121.326 28.766ZM127.026 28.766C127.026 30.1593 127.419 31.2867 128.204 32.148C129.015 33.0093 130.142 33.44 131.586 33.44C133.03 33.44 134.145 33.0093 134.93 32.148C135.741 31.2867 136.146 30.1593 136.146 28.766C136.146 27.3727 135.741 26.2453 134.93 25.384C134.145 24.5227 133.03 24.092 131.586 24.092C130.142 24.092 129.015 24.5227 128.204 25.384C127.419 26.2453 127.026 27.3727 127.026 28.766Z" fill="#FF014E"/>
</svg>
