<svg width="459" height="505" viewBox="0 0 459 505" fill="none" xmlns="http://www.w3.org/2000/svg">
<path d="M281 394H268C261.925 394 257 398.925 257 405V428C257 434.075 261.925 439 268 439H281C287.075 439 292 434.075 292 428V405C292 398.925 287.075 394 281 394Z" fill="#545AEE"/>
<path d="M281 381H268C261.925 381 257 385.925 257 392V415C257 421.075 261.925 426 268 426H281C287.075 426 292 421.075 292 415V392C292 385.925 287.075 381 281 381Z" fill="#7479F1"/>
<path d="M284 351.5C284 346.253 279.747 342 274.5 342C269.253 342 265 346.253 265 351.5V402.5C265 407.747 269.253 412 274.5 412C279.747 412 284 407.747 284 402.5V351.5Z" fill="#545AEE"/>
<path d="M209 402H196C189.925 402 185 406.925 185 413V436C185 442.075 189.925 447 196 447H209C215.075 447 220 442.075 220 436V413C220 406.925 215.075 402 209 402Z" fill="#545AEE"/>
<path d="M209 391H196C189.925 391 185 395.925 185 402V425C185 431.075 189.925 436 196 436H209C215.075 436 220 431.075 220 425V402C220 395.925 215.075 391 209 391Z" fill="#7479F1"/>
<path d="M143.165 242.5C143.165 242.5 98.932 237.478 65.978 202.17" stroke="#545AEE" stroke-width="12" stroke-linecap="round"/>
<path d="M52.2109 174.612L57.2439 179.477L60.0239 176.601C62.1784 174.372 66.0465 173.104 69.258 174.818C69.5455 174.954 69.7948 175.16 69.9842 175.415C70.1735 175.671 70.297 175.97 70.3437 176.285C70.3975 176.591 70.3768 176.906 70.2834 177.203C70.19 177.5 70.0265 177.77 69.8069 177.991L65.9844 181.945L65.1314 190.022L54.3589 201.167L52.2978 200.565C50.2952 199.895 48.4653 198.791 46.9389 197.332L39.7489 190.382C38.9724 189.616 38.4933 188.599 38.3971 187.513C38.3009 186.426 38.594 185.341 39.2239 184.451L46.4854 174.78L46.5549 174.708C47.2938 173.948 48.3034 173.512 49.3631 173.494C50.4229 173.476 51.4467 173.878 52.2109 174.612V174.612Z" fill="#545AEE"/>
<path d="M68.053 191.316L70.929 194.096C71.0305 194.183 71.1124 194.291 71.1693 194.411C71.2262 194.532 71.2568 194.664 71.2591 194.798C71.2613 194.931 71.2352 195.064 71.1825 195.187C71.1297 195.309 71.0515 195.42 70.953 195.51L59.138 207.733C59.0511 207.835 58.9436 207.916 58.8226 207.973C58.7017 208.03 58.5701 208.061 58.4364 208.063C58.3028 208.065 58.1702 208.039 58.0474 207.987C57.9246 207.934 57.8144 207.856 57.724 207.757L54.848 204.977C54.7465 204.89 54.6646 204.783 54.6077 204.662C54.5508 204.541 54.5203 204.409 54.518 204.275C54.5157 204.142 54.5418 204.009 54.5946 203.886C54.6473 203.764 54.7255 203.653 54.824 203.563L66.639 191.34C66.726 191.239 66.8335 191.157 66.9544 191.1C67.0754 191.043 67.207 191.012 67.3406 191.01C67.4743 191.008 67.6069 191.034 67.7297 191.087C67.8525 191.139 67.9627 191.218 68.053 191.316V191.316Z" fill="#545AEE"/>
<path d="M334 242.5C334 242.5 387.376 237.478 427.142 202.17" stroke="#545AEE" stroke-width="12" stroke-linecap="round"/>
<path d="M443.273 176.005L437.988 180.597L435.48 177.71C434.407 176.465 432.963 175.597 431.36 175.235C429.757 174.872 428.079 175.034 426.575 175.696C426.284 175.82 426.026 176.012 425.822 176.255C425.619 176.497 425.476 176.785 425.404 177.093C425.328 177.385 425.324 177.69 425.394 177.983C425.463 178.276 425.604 178.547 425.803 178.773L429.252 182.742L429.49 190.64L439.209 201.826L441.271 201.302C443.289 200.703 445.158 199.684 446.754 198.31L454.304 191.75C455.116 191.055 455.657 190.095 455.831 189.04C456.005 187.985 455.802 186.903 455.256 185.983L448.863 176.338L448.797 176.263C448.096 175.5 447.123 175.045 446.088 174.996C445.054 174.948 444.042 175.311 443.273 176.005Z" fill="#545AEE"/>
<path d="M425.985 191.181L422.965 193.805C422.859 193.887 422.771 193.99 422.708 194.107C422.645 194.225 422.607 194.355 422.598 194.488C422.589 194.622 422.608 194.756 422.654 194.881C422.7 195.006 422.772 195.121 422.866 195.216L434.018 208.051C434.099 208.157 434.202 208.245 434.32 208.308C434.438 208.371 434.568 208.409 434.701 208.418C434.834 208.427 434.968 208.408 435.094 208.362C435.219 208.316 435.333 208.244 435.429 208.15L438.449 205.526C438.555 205.445 438.642 205.342 438.706 205.224C438.769 205.106 438.806 204.976 438.816 204.843C438.825 204.71 438.806 204.576 438.76 204.45C438.714 204.325 438.641 204.211 438.548 204.115L427.396 191.28C427.314 191.174 427.211 191.087 427.094 191.023C426.976 190.96 426.846 190.923 426.713 190.913C426.579 190.904 426.445 190.923 426.32 190.969C426.195 191.015 426.08 191.088 425.985 191.181V191.181Z" fill="#545AEE"/>
<path d="M334 242.5C334 242.5 387.376 237.478 427.142 202.17" stroke="white" stroke-width="3" stroke-linecap="round"/>
<path d="M314 184H159C149.059 184 141 192.059 141 202V344C141 353.941 149.059 362 159 362H314C323.941 362 332 353.941 332 344V202C332 192.059 323.941 184 314 184Z" fill="#474DFF"/>
<path d="M212 351.5C212 346.253 207.747 342 202.5 342C197.253 342 193 346.253 193 351.5V402.5C193 407.747 197.253 412 202.5 412C207.747 412 212 407.747 212 402.5V351.5Z" fill="#545AEE"/>
<path d="M211.5 262C216.747 262 221 257.747 221 252.5C221 247.253 216.747 243 211.5 243C206.253 243 202 247.253 202 252.5C202 257.747 206.253 262 211.5 262Z" fill="white"/>
<path d="M264.5 262C269.747 262 274 257.747 274 252.5C274 247.253 269.747 243 264.5 243C259.253 243 255 247.253 255 252.5C255 257.747 259.253 262 264.5 262Z" fill="white"/>
<path d="M266.955 297.5C263.087 301.369 258.495 304.437 253.441 306.531C248.387 308.624 242.97 309.702 237.5 309.702C232.029 309.702 226.613 308.624 221.559 306.531C216.505 304.437 211.913 301.369 208.045 297.5" stroke="white" stroke-width="12" stroke-miterlimit="10" stroke-linecap="round"/>
<path opacity="0.11" d="M166 234.5C166 230.358 162.642 227 158.5 227C154.358 227 151 230.358 151 234.5V339.5C151 343.642 154.358 347 158.5 347C162.642 347 166 343.642 166 339.5V234.5Z" fill="white"/>
<path opacity="0.11" d="M325 234.5C325 230.358 321.642 227 317.5 227C313.358 227 310 230.358 310 234.5V339.5C310 343.642 313.358 347 317.5 347C321.642 347 325 343.642 325 339.5V234.5Z" fill="white"/>
<path d="M314.5 184H158.5C148.835 184 141 191.835 141 201.5C141 211.165 148.835 219 158.5 219H314.5C324.165 219 332 211.165 332 201.5C332 191.835 324.165 184 314.5 184Z" fill="#474DFF"/>
<path d="M314.5 186.5H158.5C150.216 186.5 143.5 193.216 143.5 201.5C143.5 209.784 150.216 216.5 158.5 216.5H314.5C322.784 216.5 329.5 209.784 329.5 201.5C329.5 193.216 322.784 186.5 314.5 186.5Z" stroke="#8D91FB" stroke-width="5"/>
<path opacity="0.5" d="M65.7002 202.924C65.7002 202.924 103.406 241.624 144.427 241.624" stroke="white" stroke-width="3" stroke-linecap="round"/>
<path opacity="0.1" d="M33.5 426C52.0015 426 67 411.002 67 392.5C67 373.998 52.0015 359 33.5 359C14.9985 359 0 373.998 0 392.5C0 411.002 14.9985 426 33.5 426Z" fill="#FF014E"/>
<path d="M356.5 505C366.165 505 374 497.165 374 487.5C374 477.835 366.165 470 356.5 470C346.835 470 339 477.835 339 487.5C339 497.165 346.835 505 356.5 505Z" fill="#00E5FF"/>
<path d="M196.5 35C206.165 35 214 27.165 214 17.5C214 7.83502 206.165 0 196.5 0C186.835 0 179 7.83502 179 17.5C179 27.165 186.835 35 196.5 35Z" fill="#FFC432"/>
<path d="M111.994 150.5H99C95.1544 150.5 91.4662 148.972 88.747 146.253C86.0277 143.534 84.5 139.846 84.5 136V113C84.5 109.154 86.0277 105.466 88.747 102.747C91.4662 100.028 95.1544 98.5 99 98.5H138C141.846 98.5 145.534 100.028 148.253 102.747C150.972 105.466 152.5 109.154 152.5 113V136C152.5 139.846 150.972 143.534 148.253 146.253C145.534 148.972 141.846 150.5 138 150.5H125.073L118.533 157.04L111.994 150.5Z" fill="#FF014E"/>
<path d="M358.972 143.408H354C350.154 143.408 346.466 141.88 343.747 139.161C341.028 136.442 339.5 132.754 339.5 128.908V121.079C339.5 117.233 341.028 113.545 343.747 110.826C346.466 108.107 350.154 106.579 354 106.579H373.161C377.007 106.579 380.695 108.107 383.414 110.826C386.133 113.545 387.661 117.233 387.661 121.079V128.908C387.661 132.754 386.133 136.442 383.414 139.161C380.695 141.88 377.007 143.408 373.161 143.408H368.236L363.6 148.039L358.972 143.408Z" fill="#FFC432"/>
<path d="M66.664 302.508H57.408C53.5623 302.508 49.8742 300.98 47.1549 298.261C44.4356 295.542 42.908 291.854 42.908 288.008V272.079C42.908 268.233 44.4356 264.545 47.1549 261.826C49.8742 259.107 53.5623 257.579 57.408 257.579H87.161C91.0066 257.579 94.6947 259.107 97.414 261.826C100.133 264.545 101.661 268.233 101.661 272.079V288.008C101.661 291.854 100.133 295.542 97.414 298.261C94.6947 300.98 91.0066 302.508 87.161 302.508H77.961L72.311 308.158L66.664 302.508Z" fill="#00E5FF"/>
<path d="M258.162 201.341H252.408C248.562 201.341 244.874 199.813 242.155 197.094C239.436 194.375 237.908 190.687 237.908 186.841V177.535C237.908 173.689 239.436 170.001 242.155 167.282C244.874 164.563 248.562 163.035 252.408 163.035H273.5C277.346 163.035 281.034 164.563 283.753 167.282C286.472 170.001 288 173.689 288 177.535V186.841C288 190.687 286.472 194.375 283.753 197.094C281.034 199.813 277.346 201.341 273.5 201.341H267.8L262.982 206.159L258.162 201.341Z" fill="#00D707"/>
<path d="M400.994 284.5H388C384.154 284.5 380.466 282.972 377.747 280.253C375.028 277.534 373.5 273.846 373.5 270V247C373.5 243.154 375.028 239.466 377.747 236.747C380.466 234.028 384.154 232.5 388 232.5H427C430.846 232.5 434.534 234.028 437.253 236.747C439.972 239.466 441.5 243.154 441.5 247V270C441.5 273.846 439.972 277.534 437.253 280.253C434.534 282.972 430.846 284.5 427 284.5H414.073L407.533 291.04L400.994 284.5Z" fill="#FF014E"/>
</svg>
